<svg id="montains" viewBox="0 0 1440 286" xmlns="http://www.w3.org/2000/svg">
  <path d="M-142.028 167.034C-142.028 167.034 -39.6052 223.284 86.8155 221.112C211.201 218.978 309.112 151.885 315.659 151.885C322.206 151.885 391.934 180.01 448.607 182.163C505.28 184.336 795.136 115.108 827.831 93.481C833.264 89.8796 965.137 147.559 965.137 147.559C965.137 147.559 1028.34 119.434 1093.73 69.6812C1148.21 112.936 1263.73 154.038 1263.73 154.038C1263.73 154.038 1453.33 212.442 1599.35 192.968C1599.35 247.046 1599.35 300 1599.35 300H-146.348L-142.028 167.034Z" fill="#020C0E"/>
  <mask id="mask" mask-type="alpha" maskUnits="userSpaceOnUse" x="-206" y="0" width="1851" height="296">
      <path d="M-205.561 174.924C-88.9212 225.229 133.412 271.076 258.143 295.619C243.611 279.365 120.663 247.371 106.112 231.117C169.186 214.311 238.818 199.467 297.694 171.418C346.332 211.757 417.708 203.907 480.246 193.826C530.303 185.766 580.341 177.706 630.398 169.646C623.765 181.65 581.338 215.111 593.684 208.994C635.459 188.358 743.031 138.262 784.806 117.644C792.858 113.662 801.275 109.603 810.266 109.527C821.117 109.432 831.086 115.129 840.193 120.998C863.851 136.223 911.166 152.42 938.505 159.261C965.844 166.101 975.295 159.604 987.258 134.241C1013.39 149.314 1051.83 134.679 1061.13 106.097C1155.72 159.775 1249.99 168.483 1379.76 207.165C1412.95 217.055 1447.11 211.205 1481.73 212.691C1527.73 214.673 1560.24 220.218 1606.1 216.121C1622.66 214.635 1641.97 206.746 1644.21 190.378C1647.45 166.768 1615.26 156.726 1591.34 155.088C1514.96 149.847 1439.06 137.652 1364.9 118.711C1250.73 89.538 1140.84 44.4156 1025.29 21.3399C884.211 -6.84262 738.737 -1.431 595.007 5.77182C441.788 13.451 287.82 23.131 138.32 57.3159C31.2274 81.8017 -76.4596 119.035 -185.68 107.012" fill="#946394"/>
  </mask>
  <g mask="url(#mask)">
      <path d="M-142.028 167.034C-142.028 167.034 -39.6052 223.284 86.8155 221.112C211.201 218.978 309.112 151.885 315.659 151.885C322.206 151.885 391.934 180.01 448.607 182.163C505.28 184.336 795.136 115.108 827.831 93.481C833.264 89.8796 965.137 147.559 965.137 147.559C965.137 147.559 1028.34 119.434 1093.73 69.6812C1148.21 112.936 1263.73 154.038 1263.73 154.038C1263.73 154.038 1453.33 212.442 1599.35 192.968C1599.35 247.046 1599.35 300 1599.35 300H-146.348L-142.028 167.034Z" fill="white"/>
  </g>
</svg>
