<svg id="night-sky" viewBox="0 0 1440 800" xmlns="http://www.w3.org/2000/svg">
  <style>
  .sky { fill: url(#sky-bg); }
    .color-white { fill: white; }
    .shooting-star { fill: url(#linear-star); }
    .stars { opacity: .2; }
  </style>
  <path class="sky" d="M1465 -122H-25V869.141H1465V-122Z"/>
  <g class="stars">
      <path class="star color-white" d="M105.699 95.6657C105.699 97.5473 104.183 99.0641 102.303 99.0641C100.422 99.0641 98.906 97.5473 98.906 95.6657C98.906 93.7841 100.422 92.2673 102.303 92.2673C104.183 92.2673 105.699 93.7841 105.699 95.6657Z"/>
      <path class="star color-white" d="M203.623 116.593C203.623 118.474 202.107 119.991 200.226 119.991C198.346 119.991 196.83 118.474 196.83 116.593C196.83 114.711 198.346 113.194 200.226 113.194C202.107 113.194 203.623 114.711 203.623 116.593Z"/>
      <path class="star color-white" d="M37.2699 57.2291C37.2699 59.1107 35.7539 60.6275 33.8733 60.6275C31.9928 60.6275 30.4768 59.1107 30.4768 57.2291C30.4768 55.3475 31.9928 53.8307 33.8733 53.8307C35.7539 53.8307 37.2699 55.3475 37.2699 57.2291Z"/>
      <path class="star color-white" d="M450.264 106.993C450.264 108.875 448.748 110.392 446.868 110.392C444.987 110.392 443.471 108.875 443.471 106.993C443.471 105.112 444.987 103.595 446.868 103.595C448.748 103.595 450.264 105.112 450.264 106.993Z"/>
      <path class="star color-white" d="M140.298 70.2852C140.298 71.226 139.53 71.9748 138.609 71.9748C137.688 71.9748 136.92 71.2068 136.92 70.2852C136.92 69.3444 137.688 68.5956 138.609 68.5956C139.53 68.5956 140.298 69.3444 140.298 70.2852Z"/>
      <path class="star color-white" d="M210.013 61.5491C210.013 62.4899 209.245 63.2387 208.324 63.2387C207.403 63.2387 206.635 62.4707 206.635 61.5491C206.635 60.6083 207.403 59.8595 208.324 59.8595C209.245 59.8595 210.013 60.6083 210.013 61.5491Z"/>
      <path class="star color-white" d="M139.664 165.224C139.664 166.165 138.897 166.914 137.976 166.914C137.035 166.914 136.287 166.146 136.287 165.224C136.287 164.284 137.055 163.535 137.976 163.535C138.897 163.535 139.664 164.284 139.664 165.224Z"/>
      <path class="star color-white" d="M172.574 186.132C173.093 186.132 173.514 185.711 173.514 185.192C173.514 184.672 173.093 184.251 172.574 184.251C172.055 184.251 171.634 184.672 171.634 185.192C171.634 185.711 172.055 186.132 172.574 186.132Z"/>
      <path class="star color-white" d="M224.155 154.876C224.675 154.876 225.096 154.455 225.096 153.935C225.096 153.416 224.675 152.995 224.155 152.995C223.636 152.995 223.215 153.416 223.215 153.935C223.215 154.455 223.636 154.876 224.155 154.876Z"/>
      <path class="star color-white" d="M202.836 175.822C203.355 175.822 203.776 175.401 203.776 174.882C203.776 174.362 203.355 173.941 202.836 173.941C202.317 173.941 201.896 174.362 201.896 174.882C201.896 175.401 202.317 175.822 202.836 175.822Z"/>
      <path class="star color-white" d="M191.13 192.007C191.65 192.007 192.071 191.586 192.071 191.067C192.071 190.547 191.65 190.126 191.13 190.126C190.611 190.126 190.19 190.547 190.19 191.067C190.19 191.586 190.611 192.007 191.13 192.007Z"/>
      <path class="star color-white" d="M192.263 165.724C192.782 165.724 193.203 165.302 193.203 164.783C193.203 164.263 192.782 163.842 192.263 163.842C191.743 163.842 191.322 164.263 191.322 164.783C191.322 165.302 191.743 165.724 192.263 165.724Z"/>
      <path class="star color-white" d="M94.0129 227.084C94.9455 227.084 95.7016 226.328 95.7016 225.395C95.7016 224.462 94.9455 223.705 94.0129 223.705C93.0803 223.705 92.3242 224.462 92.3242 225.395C92.3242 226.328 93.0803 227.084 94.0129 227.084Z"/>
      <path class="star color-white" d="M365.428 58.2659C366.36 58.2659 367.116 57.5095 367.116 56.5763C367.116 55.6432 366.36 54.8867 365.428 54.8867C364.495 54.8867 363.739 55.6432 363.739 56.5763C363.739 57.5095 364.495 58.2659 365.428 58.2659Z"/>
      <path class="star color-white" d="M103.838 346.984C103.838 348.865 102.322 350.382 100.441 350.382C98.5606 350.382 97.0447 348.865 97.0447 346.984C97.0447 345.102 98.5606 343.585 100.441 343.585C102.322 343.585 103.838 345.102 103.838 346.984Z"/>
      <path class="star color-white" d="M78.143 524.807C78.143 526.688 76.6271 528.205 74.7465 528.205C72.8659 528.205 71.35 526.688 71.35 524.807C71.35 522.925 72.8659 521.408 74.7465 521.408C76.6271 521.408 78.143 522.925 78.143 524.807Z"/>
      <path class="star color-white" d="M349.002 263.966C349.002 265.848 347.486 267.365 345.605 267.365C343.725 267.365 342.209 265.848 342.209 263.966C342.209 262.085 343.725 260.568 345.605 260.568C347.486 260.587 349.002 262.104 349.002 263.966Z"/>
      <path class="star color-white" d="M575.034 171.848C575.034 173.73 573.518 175.247 571.637 175.247C569.757 175.247 568.241 173.73 568.241 171.848C568.241 169.967 569.757 168.45 571.637 168.45C573.499 168.45 575.034 169.967 575.034 171.848Z"/>
      <path class="star color-white" d="M279.44 179.067C280.373 179.067 281.129 178.311 281.129 177.377C281.129 176.444 280.373 175.688 279.44 175.688C278.507 175.688 277.751 176.444 277.751 177.377C277.751 178.311 278.507 179.067 279.44 179.067Z"/>
      <path class="star color-white" d="M33.7581 330.223C33.7581 331.163 32.9905 331.912 32.0694 331.912C31.1291 331.912 30.3807 331.144 30.3807 330.223C30.3807 329.301 31.1483 328.533 32.0694 328.533C32.9905 328.514 33.7581 329.282 33.7581 330.223Z"/>
      <path class="star color-white" d="M265.278 273.009C265.278 273.95 264.511 274.698 263.59 274.698C262.649 274.698 261.901 273.93 261.901 273.009C261.901 272.068 262.669 271.319 263.59 271.319C264.511 271.3 265.278 272.068 265.278 273.009Z"/>
      <path class="star color-white" d="M316.744 385.843C316.744 386.783 315.977 387.532 315.056 387.532C314.115 387.532 313.367 386.764 313.367 385.843C313.367 384.921 314.135 384.153 315.056 384.153C315.996 384.134 316.744 384.902 316.744 385.843Z"/>
      <path class="star color-white" d="M194.911 376.685C194.911 377.625 194.143 378.374 193.222 378.374C192.301 378.374 191.533 377.606 191.533 376.685C191.533 375.744 192.301 374.995 193.222 374.995C194.143 374.995 194.911 375.744 194.911 376.685Z"/>
      <path class="star color-white" d="M41.4339 183.041C41.4339 183.982 40.6663 184.731 39.7452 184.731C38.8049 184.731 38.0565 183.963 38.0565 183.041C38.0565 182.12 38.8241 181.352 39.7452 181.352C40.6663 181.352 41.4339 182.12 41.4339 183.041Z"/>
      <path class="star color-white" d="M216.518 434.551C216.518 435.492 215.75 436.241 214.829 436.241C213.908 436.241 213.141 435.473 213.141 434.551C213.141 433.61 213.908 432.862 214.829 432.862C215.75 432.862 216.518 433.61 216.518 434.551Z"/>
      <path class="star color-white" d="M227.84 397.573C228.359 397.573 228.78 397.152 228.78 396.633C228.78 396.113 228.359 395.692 227.84 395.692C227.32 395.692 226.899 396.113 226.899 396.633C226.899 397.152 227.32 397.573 227.84 397.573Z"/>
      <path class="star color-white" d="M279.421 366.317C279.94 366.317 280.361 365.896 280.361 365.376C280.361 364.857 279.94 364.435 279.421 364.435C278.902 364.435 278.481 364.857 278.481 365.376C278.481 365.896 278.902 366.317 279.421 366.317Z"/>
      <path class="star color-white" d="M377.153 293.418C377.672 293.418 378.093 292.996 378.093 292.477C378.093 291.957 377.672 291.536 377.153 291.536C376.633 291.536 376.212 291.957 376.212 292.477C376.212 292.996 376.633 293.418 377.153 293.418Z"/>
      <path class="star color-white" d="M258.101 387.263C258.621 387.263 259.042 386.842 259.042 386.323C259.042 385.803 258.621 385.382 258.101 385.382C257.582 385.382 257.161 385.803 257.161 386.323C257.161 386.842 257.582 387.263 258.101 387.263Z"/>
      <path class="star color-white" d="M274.048 427.275C274.567 427.275 274.988 426.853 274.988 426.334C274.988 425.814 274.567 425.393 274.048 425.393C273.529 425.393 273.108 425.814 273.108 426.334C273.108 426.853 273.529 427.275 274.048 427.275Z"/>
      <path class="star color-white" d="M336.145 427.044C336.664 427.044 337.085 426.623 337.085 426.104C337.085 425.584 336.664 425.163 336.145 425.163C335.625 425.163 335.204 425.584 335.204 426.104C335.204 426.623 335.625 427.044 336.145 427.044Z"/>
      <path class="star color-white" d="M467.362 381.331C467.881 381.331 468.302 380.91 468.302 380.39C468.302 379.87 467.881 379.449 467.362 379.449C466.843 379.449 466.422 379.87 466.422 380.39C466.422 380.91 466.843 381.331 467.362 381.331Z"/>
      <path class="star color-white" d="M246.377 403.468C246.896 403.468 247.317 403.046 247.317 402.527C247.317 402.007 246.896 401.586 246.377 401.586C245.857 401.586 245.436 402.007 245.436 402.527C245.436 403.046 245.857 403.468 246.377 403.468Z"/>
      <path class="star color-white" d="M339.656 477.442C340.176 477.442 340.597 477.021 340.597 476.501C340.597 475.982 340.176 475.561 339.656 475.561C339.137 475.561 338.716 475.982 338.716 476.501C338.716 477.021 339.137 477.442 339.656 477.442Z"/>
      <path class="star color-white" d="M247.72 375.321C248.219 375.417 248.564 375.917 248.449 376.435C248.353 376.934 247.854 377.28 247.336 377.165C246.837 377.069 246.492 376.569 246.607 376.051C246.703 375.552 247.202 375.225 247.72 375.321Z"/>
      <path class="star color-white" d="M222.812 513.978C223.331 513.978 223.752 513.557 223.752 513.038C223.752 512.518 223.331 512.097 222.812 512.097C222.293 512.097 221.872 512.518 221.872 513.038C221.872 513.557 222.293 513.978 222.812 513.978Z"/>
      <path class="star color-white" d="M190.19 297.027C190.709 297.027 191.13 296.606 191.13 296.086C191.13 295.567 190.709 295.146 190.19 295.146C189.671 295.146 189.25 295.567 189.25 296.086C189.25 296.606 189.671 297.027 190.19 297.027Z"/>
      <path class="star color-white" d="M250.387 319.432C250.907 319.432 251.328 319.011 251.328 318.492C251.328 317.972 250.907 317.551 250.387 317.551C249.868 317.551 249.447 317.972 249.447 318.492C249.447 319.011 249.868 319.432 250.387 319.432Z"/>
      <path class="star color-white" d="M124.082 314.518C124.602 314.518 125.023 314.096 125.023 313.577C125.023 313.057 124.602 312.636 124.082 312.636C123.563 312.636 123.142 313.057 123.142 313.577C123.142 314.096 123.563 314.518 124.082 314.518Z"/>
      <path class="star color-white" d="M34.1034 506.99C34.6227 506.99 35.0437 506.569 35.0437 506.049C35.0437 505.529 34.6227 505.108 34.1034 505.108C33.5841 505.108 33.1631 505.529 33.1631 506.049C33.1631 506.569 33.5841 506.99 34.1034 506.99Z"/>
      <path class="star color-white" d="M103.934 501.134C104.453 501.134 104.874 500.713 104.874 500.193C104.874 499.674 104.453 499.252 103.934 499.252C103.414 499.252 102.993 499.674 102.993 500.193C102.993 500.713 103.414 501.134 103.934 501.134Z"/>
      <path class="star color-white" d="M149.278 438.525C150.211 438.525 150.967 437.769 150.967 436.836C150.967 435.903 150.211 435.146 149.278 435.146C148.346 435.146 147.59 435.903 147.59 436.836C147.59 437.769 148.346 438.525 149.278 438.525Z"/>
      <path class="star color-white" d="M117.577 574.686C117.577 575.627 116.81 576.376 115.889 576.376C114.948 576.376 114.2 575.608 114.2 574.686C114.2 573.745 114.968 572.997 115.889 572.997C116.829 572.977 117.577 573.745 117.577 574.686Z"/>
      <path class="star color-white" d="M525.832 95.6657C525.832 97.5473 524.316 99.0641 522.436 99.0641C520.555 99.0641 519.039 97.5473 519.039 95.6657C519.039 93.7841 520.555 92.2673 522.436 92.2673C524.316 92.2673 525.832 93.7841 525.832 95.6657Z"/>
      <path class="star color-white" d="M706.404 96.5298C708.28 96.5298 709.801 95.0083 709.801 93.1314C709.801 91.2545 708.28 89.733 706.404 89.733C704.528 89.733 703.008 91.2545 703.008 93.1314C703.008 95.0083 704.528 96.5298 706.404 96.5298Z"/>
      <path class="star color-white" d="M457.403 57.2291C457.403 59.1107 455.887 60.6275 454.006 60.6275C452.126 60.6275 450.61 59.1107 450.61 57.2291C450.61 55.3475 452.126 53.8307 454.006 53.8307C455.887 53.8307 457.403 55.3475 457.403 57.2291Z"/>
      <path class="star color-white" d="M870.397 106.993C870.397 108.875 868.881 110.392 867 110.392C865.12 110.392 863.604 108.875 863.604 106.993C863.604 105.112 865.12 103.595 867 103.595C868.881 103.595 870.397 105.112 870.397 106.993Z"/>
      <path class="star color-white" d="M558.742 71.9748C559.674 71.9748 560.431 71.2183 560.431 70.2852C560.431 69.352 559.674 68.5956 558.742 68.5956C557.809 68.5956 557.053 69.352 557.053 70.2852C557.053 71.2183 557.809 71.9748 558.742 71.9748Z"/>
      <path class="star color-white" d="M630.145 61.5491C630.145 62.4899 629.378 63.2387 628.457 63.2387C627.536 63.2387 626.768 62.4707 626.768 61.5491C626.768 60.6083 627.536 59.8595 628.457 59.8595C629.378 59.8595 630.145 60.6083 630.145 61.5491Z"/>
      <path class="star color-white" d="M559.797 165.224C559.797 166.165 559.03 166.914 558.109 166.914C557.168 166.914 556.42 166.146 556.42 165.224C556.42 164.284 557.187 163.535 558.109 163.535C559.03 163.535 559.797 164.284 559.797 165.224Z"/>
      <path class="star color-white" d="M508.753 273.604C509.273 273.604 509.694 273.183 509.694 272.663C509.694 272.144 509.273 271.722 508.753 271.722C508.234 271.722 507.813 272.144 507.813 272.663C507.813 273.183 508.234 273.604 508.753 273.604Z"/>
      <path class="star color-white" d="M644.307 154.876C644.827 154.876 645.248 154.455 645.248 153.935C645.248 153.416 644.827 152.995 644.307 152.995C643.788 152.995 643.367 153.416 643.367 153.935C643.367 154.455 643.788 154.876 644.307 154.876Z"/>
      <path class="star color-white" d="M622.969 175.822C623.488 175.822 623.909 175.401 623.909 174.882C623.909 174.362 623.488 173.941 622.969 173.941C622.449 173.941 622.028 174.362 622.028 174.882C622.028 175.401 622.449 175.822 622.969 175.822Z"/>
      <path class="star color-white" d="M611.263 192.007C611.783 192.007 612.204 191.586 612.204 191.067C612.204 190.547 611.783 190.126 611.263 190.126C610.744 190.126 610.323 190.547 610.323 191.067C610.323 191.586 610.744 192.007 611.263 192.007Z"/>
      <path class="star color-white" d="M369.611 176.629C370.13 176.629 370.551 176.208 370.551 175.688C370.551 175.168 370.13 174.747 369.611 174.747C369.092 174.747 368.671 175.168 368.671 175.688C368.671 176.208 369.092 176.629 369.611 176.629Z"/>
      <path class="star color-white" d="M515.854 225.395C515.854 226.336 515.086 227.084 514.165 227.084C513.225 227.084 512.476 226.316 512.476 225.395C512.476 224.473 513.244 223.705 514.165 223.705C515.086 223.686 515.854 224.454 515.854 225.395Z"/>
      <path class="star color-white" d="M787.268 56.5763C787.268 57.5171 786.501 58.2659 785.58 58.2659C784.659 58.2659 783.891 57.4979 783.891 56.5763C783.891 55.6355 784.659 54.8867 785.58 54.8867C786.501 54.8867 787.268 55.6355 787.268 56.5763Z"/>
      <path class="star color-white" d="M526.638 446.57C526.638 448.451 525.122 449.968 523.242 449.968C521.361 449.968 519.845 448.451 519.845 446.57C519.845 444.688 521.361 443.172 523.242 443.172C525.122 443.172 526.638 444.688 526.638 446.57Z"/>
      <path class="star color-white" d="M446.388 460.873C446.388 462.755 444.872 464.272 442.991 464.272C441.111 464.272 439.595 462.755 439.595 460.873C439.595 458.992 441.111 457.475 442.991 457.475C444.872 457.475 446.388 458.992 446.388 460.873Z"/>
      <path class="star color-white" d="M322.616 598.071C322.616 599.953 321.1 601.469 319.22 601.469C317.339 601.469 315.823 599.953 315.823 598.071C315.823 596.189 317.339 594.673 319.22 594.673C321.1 594.673 322.616 596.189 322.616 598.071Z"/>
      <path class="star color-white" d="M769.154 263.966C769.154 265.848 767.638 267.365 765.757 267.365C763.877 267.365 762.361 265.848 762.361 263.966C762.361 262.085 763.877 260.568 765.757 260.568C767.638 260.587 769.154 262.104 769.154 263.966Z"/>
      <path class="star color-white" d="M991.77 175.247C993.646 175.247 995.167 173.725 995.167 171.848C995.167 169.971 993.646 168.45 991.77 168.45C989.894 168.45 988.374 169.971 988.374 171.848C988.374 173.725 989.894 175.247 991.77 175.247Z"/>
      <path class="star color-white" d="M735.188 167.548C736.121 167.548 736.877 166.791 736.877 165.858C736.877 164.925 736.121 164.168 735.188 164.168C734.256 164.168 733.5 164.925 733.5 165.858C733.5 166.791 734.256 167.548 735.188 167.548Z"/>
      <path class="star color-white" d="M453.891 330.223C453.891 331.164 453.123 331.912 452.202 331.912C451.281 331.912 450.514 331.144 450.514 330.223C450.514 329.301 451.281 328.533 452.202 328.533C453.123 328.533 453.891 329.282 453.891 330.223Z"/>
      <path class="star color-white" d="M621.971 240.735C622.903 240.735 623.66 239.979 623.66 239.045C623.66 238.112 622.903 237.356 621.971 237.356C621.038 237.356 620.282 238.112 620.282 239.045C620.282 239.979 621.038 240.735 621.971 240.735Z"/>
      <path class="star color-white" d="M842.649 290.423C843.582 290.423 844.338 289.666 844.338 288.733C844.338 287.8 843.582 287.043 842.649 287.043C841.716 287.043 840.96 287.8 840.96 288.733C840.96 289.666 841.716 290.423 842.649 290.423Z"/>
      <path class="star color-white" d="M615.063 376.685C615.063 377.625 614.295 378.374 613.374 378.374C612.453 378.374 611.686 377.606 611.686 376.685C611.686 375.744 612.453 374.995 613.374 374.995C614.295 374.995 615.063 375.744 615.063 376.685Z"/>
      <path class="star color-white" d="M461.567 183.041C461.567 183.982 460.799 184.731 459.878 184.731C458.957 184.731 458.189 183.963 458.189 183.041C458.189 182.12 458.957 181.352 459.878 181.352C460.799 181.352 461.567 182.12 461.567 183.041Z"/>
      <path class="star color-white" d="M599.021 424.452C599.021 425.393 598.253 426.142 597.332 426.142C596.411 426.142 595.643 425.374 595.643 424.452C595.643 423.531 596.411 422.763 597.332 422.763C598.253 422.763 599.021 423.512 599.021 424.452Z"/>
      <path class="star color-white" d="M647.973 397.573C648.492 397.573 648.913 397.152 648.913 396.633C648.913 396.113 648.492 395.692 647.973 395.692C647.453 395.692 647.032 396.113 647.032 396.633C647.032 397.152 647.453 397.573 647.973 397.573Z"/>
      <path class="star color-white" d="M699.554 366.317C700.073 366.317 700.494 365.896 700.494 365.376C700.494 364.857 700.073 364.435 699.554 364.435C699.034 364.435 698.613 364.857 698.613 365.376C698.613 365.896 699.034 366.317 699.554 366.317Z"/>
      <path class="star color-white" d="M797.285 293.418C797.805 293.418 798.226 292.996 798.226 292.477C798.226 291.957 797.805 291.536 797.285 291.536C796.766 291.536 796.345 291.957 796.345 292.477C796.345 292.996 796.766 293.418 797.285 293.418Z"/>
      <path class="star color-white" d="M780.303 238.066C780.822 238.066 781.243 237.645 781.243 237.125C781.243 236.606 780.822 236.185 780.303 236.185C779.784 236.185 779.363 236.606 779.363 237.125C779.363 237.645 779.784 238.066 780.303 238.066Z"/>
      <path class="star color-white" d="M694.18 427.275C694.7 427.275 695.121 426.853 695.121 426.334C695.121 425.814 694.7 425.393 694.18 425.393C693.661 425.393 693.24 425.814 693.24 426.334C693.24 426.853 693.661 427.275 694.18 427.275Z"/>
      <path class="star color-white" d="M890.623 217.888C891.142 217.888 891.563 217.467 891.563 216.947C891.563 216.427 891.142 216.006 890.623 216.006C890.103 216.006 889.682 216.427 889.682 216.947C889.682 217.467 890.103 217.888 890.623 217.888Z"/>
      <path class="star color-white" d="M887.495 381.331C888.014 381.331 888.435 380.91 888.435 380.39C888.435 379.87 888.014 379.449 887.495 379.449C886.975 379.449 886.554 379.87 886.554 380.39C886.554 380.91 886.975 381.331 887.495 381.331Z"/>
      <path class="star color-white" d="M584.667 547.27C585.186 547.27 585.607 546.849 585.607 546.329C585.607 545.809 585.186 545.388 584.667 545.388C584.148 545.388 583.727 545.809 583.727 546.329C583.727 546.849 584.148 547.27 584.667 547.27Z"/>
      <path class="star color-white" d="M699.784 490.824C700.303 490.824 700.724 490.403 700.724 489.883C700.724 489.364 700.303 488.942 699.784 488.942C699.265 488.942 698.844 489.364 698.844 489.883C698.844 490.403 699.265 490.824 699.784 490.824Z"/>
      <path class="star color-white" d="M197.885 95.0513C198.404 95.0513 198.825 94.6301 198.825 94.1105C198.825 93.5909 198.404 93.1697 197.885 93.1697C197.366 93.1697 196.945 93.5909 196.945 94.1105C196.945 94.6301 197.366 95.0513 197.885 95.0513Z"/>
      <path class="star color-white" d="M759.789 477.442C760.309 477.442 760.73 477.021 760.73 476.501C760.73 475.982 760.309 475.561 759.789 475.561C759.27 475.561 758.849 475.982 758.849 476.501C758.849 477.021 759.27 477.442 759.789 477.442Z"/>
      <path class="star color-white" d="M787.998 462.755C788.517 462.755 788.938 462.334 788.938 461.814C788.938 461.294 788.517 460.873 787.998 460.873C787.478 460.873 787.057 461.294 787.057 461.814C787.057 462.334 787.478 462.755 787.998 462.755Z"/>
      <path class="star color-white" d="M782.625 444.861C783.144 444.861 783.565 444.44 783.565 443.92C783.565 443.401 783.144 442.98 782.625 442.98C782.105 442.98 781.684 443.401 781.684 443.92C781.684 444.44 782.105 444.861 782.625 444.861Z"/>
      <path class="star color-white" d="M667.853 375.321C668.352 375.417 668.697 375.917 668.582 376.435C668.486 376.934 667.987 377.28 667.469 377.165C666.97 377.069 666.625 376.569 666.74 376.051C666.836 375.552 667.335 375.225 667.853 375.321Z"/>
      <path class="star color-white" d="M573.153 559.941C573.672 559.941 574.094 559.52 574.094 559C574.094 558.481 573.672 558.06 573.153 558.06C572.634 558.06 572.213 558.481 572.213 559C572.213 559.52 572.634 559.941 573.153 559.941Z"/>
      <path class="star color-white" d="M610.323 297.027C610.842 297.027 611.263 296.606 611.263 296.086C611.263 295.567 610.842 295.146 610.323 295.146C609.804 295.146 609.383 295.567 609.383 296.086C609.383 296.606 609.804 297.027 610.323 297.027Z"/>
      <path class="star color-white" d="M670.52 319.432C671.04 319.432 671.461 319.011 671.461 318.492C671.461 317.972 671.04 317.551 670.52 317.551C670.001 317.551 669.58 317.972 669.58 318.492C669.58 319.011 670.001 319.432 670.52 319.432Z"/>
      <path class="star color-white" d="M1190.42 225.932C1190.94 225.932 1191.36 225.511 1191.36 224.992C1191.36 224.472 1190.94 224.051 1190.42 224.051C1189.9 224.051 1189.48 224.472 1189.48 224.992C1189.48 225.511 1189.9 225.932 1190.42 225.932Z"/>
      <path class="star color-white" d="M1242 194.695C1242.52 194.695 1242.94 194.274 1242.94 193.755C1242.94 193.235 1242.52 192.814 1242 192.814C1241.48 192.814 1241.06 193.235 1241.06 193.755C1241.06 194.274 1241.48 194.695 1242 194.695Z"/>
      <path class="star color-white" d="M1236.63 255.653C1237.15 255.653 1237.57 255.232 1237.57 254.712C1237.57 254.192 1237.15 253.771 1236.63 253.771C1236.11 253.771 1235.69 254.192 1235.69 254.712C1235.69 255.232 1236.11 255.653 1236.63 255.653Z"/>
      <path class="star color-white" d="M1210.3 203.68C1210.8 203.776 1211.14 204.276 1211.03 204.794C1210.93 205.312 1210.43 205.639 1209.92 205.524C1209.4 205.428 1209.07 204.928 1209.19 204.41C1209.28 203.911 1209.78 203.584 1210.3 203.68Z"/>
      <path class="star color-white" d="M1212.97 147.811C1213.49 147.811 1213.91 147.389 1213.91 146.87C1213.91 146.35 1213.49 145.929 1212.97 145.929C1212.45 145.929 1212.03 146.35 1212.03 146.87C1212.03 147.389 1212.45 147.811 1212.97 147.811Z"/>
      <path class="star color-white" d="M544.235 314.518C544.754 314.518 545.175 314.096 545.175 313.577C545.175 313.057 544.754 312.636 544.235 312.636C543.715 312.636 543.294 313.057 543.294 313.577C543.294 314.096 543.715 314.518 544.235 314.518Z"/>
      <path class="star color-white" d="M1227.38 97.3552C1227.9 97.3552 1228.32 96.934 1228.32 96.4144C1228.32 95.8948 1227.9 95.4736 1227.38 95.4736C1226.86 95.4736 1226.44 95.8948 1226.44 96.4144C1226.44 96.934 1226.86 97.3552 1227.38 97.3552Z"/>
      <path class="star color-white" d="M1216.09 268.267C1215.77 270.11 1214.02 271.339 1212.18 271.012C1210.34 270.686 1209.11 268.939 1209.44 267.096C1209.76 265.252 1211.51 264.024 1213.37 264.35C1215.17 264.657 1216.42 266.404 1216.09 268.267Z"/>
      <path class="star color-white" d="M1231.75 198.285C1231.75 200.167 1230.24 201.684 1228.36 201.684C1226.48 201.684 1224.96 200.167 1224.96 198.285C1224.96 196.404 1226.48 194.887 1228.36 194.887C1230.24 194.887 1231.75 196.404 1231.75 198.285Z"/>
      <path class="star color-white" d="M1342.3 62.7971C1342.3 63.7379 1341.54 64.4867 1340.61 64.4867C1339.67 64.4867 1338.93 63.7187 1338.93 62.7971C1338.93 61.8563 1339.69 61.1075 1340.61 61.1075C1341.54 61.0883 1342.3 61.8563 1342.3 62.7971Z"/>
      <path class="star color-white" d="M1331.98 202.106C1332.91 202.106 1333.67 201.35 1333.67 200.417C1333.67 199.484 1332.91 198.727 1331.98 198.727C1331.05 198.727 1330.29 199.484 1330.29 200.417C1330.29 201.35 1331.05 202.106 1331.98 202.106Z"/>
      <path class="star color-white" d="M1290.49 283.357C1290.49 284.298 1289.72 285.047 1288.8 285.047C1287.86 285.047 1287.11 284.279 1287.11 283.357C1287.11 282.436 1287.88 281.668 1288.8 281.668C1289.72 281.668 1290.49 282.416 1290.49 283.357Z"/>
      <path class="star color-white" d="M1366.6 221.325C1367.12 221.325 1367.54 220.903 1367.54 220.384C1367.54 219.864 1367.12 219.443 1366.6 219.443C1366.08 219.443 1365.66 219.864 1365.66 220.384C1365.66 220.903 1366.08 221.325 1366.6 221.325Z"/>
      <path class="star color-white" d="M1386.48 199.073C1387 199.169 1387.32 199.668 1387.21 200.186C1387.11 200.685 1386.61 201.031 1386.09 200.916C1385.59 200.82 1385.25 200.321 1385.36 199.802C1385.48 199.284 1385.96 198.957 1386.48 199.073Z"/>
      <path class="star color-white" d="M1329.89 119.837C1329.89 120.356 1329.46 120.778 1328.95 120.778C1328.43 120.778 1328.01 120.356 1328.01 119.837C1328.01 119.319 1328.43 118.897 1328.95 118.897C1329.46 118.897 1329.89 119.319 1329.89 119.837Z"/>
      <path class="star color-white" d="M1390.08 142.243C1390.08 142.761 1389.66 143.184 1389.14 143.184C1388.63 143.184 1388.2 142.761 1388.2 142.243C1388.2 141.725 1388.63 141.302 1389.14 141.302C1389.66 141.302 1390.08 141.725 1390.08 142.243Z"/>
      <path class="star color-white" d="M1262.86 138.269C1263.38 138.269 1263.8 137.847 1263.8 137.328C1263.8 136.808 1263.38 136.387 1262.86 136.387C1262.34 136.387 1261.92 136.808 1261.92 137.328C1261.92 137.847 1262.34 138.269 1262.86 138.269Z"/>
      <path class="star color-white" d="M454.256 506.99C454.775 506.99 455.196 506.569 455.196 506.049C455.196 505.529 454.775 505.108 454.256 505.108C453.736 505.108 453.315 505.529 453.315 506.049C453.315 506.569 453.736 506.99 454.256 506.99Z"/>
      <path class="star color-white" d="M524.086 501.134C524.605 501.134 525.026 500.713 525.026 500.193C525.026 499.674 524.605 499.252 524.086 499.252C523.567 499.252 523.146 499.674 523.146 500.193C523.146 500.713 523.567 501.134 524.086 501.134Z"/>
      <path class="star color-white" d="M412.806 471.356C413.739 471.356 414.495 470.6 414.495 469.666C414.495 468.733 413.739 467.977 412.806 467.977C411.874 467.977 411.118 468.733 411.118 469.666C411.118 470.6 411.874 471.356 412.806 471.356Z"/>
      <path class="star color-white" d="M479.758 595.921C480.691 595.921 481.447 595.164 481.447 594.231C481.447 593.298 480.691 592.541 479.758 592.541C478.826 592.541 478.07 593.298 478.07 594.231C478.07 595.164 478.826 595.921 479.758 595.921Z"/>
      <path class="star color-white" d="M1222.41 392.85C1222.93 392.85 1223.35 392.429 1223.35 391.91C1223.35 391.39 1222.93 390.969 1222.41 390.969C1221.89 390.969 1221.47 391.39 1221.47 391.91C1221.47 392.429 1221.89 392.85 1222.41 392.85Z"/>
      <path class="star color-white" d="M1241.79 455.997C1241.79 457.878 1240.27 459.395 1238.39 459.395C1236.51 459.395 1235 457.878 1235 455.997C1235 454.115 1236.51 452.598 1238.39 452.598C1240.27 452.598 1241.79 454.115 1241.79 455.997Z"/>
      <path class="star color-white" d="M1370.09 388.204C1370.09 389.145 1369.32 389.894 1368.4 389.894C1367.46 389.894 1366.71 389.126 1366.71 388.204C1366.71 387.263 1367.48 386.515 1368.4 386.515C1369.34 386.495 1370.09 387.263 1370.09 388.204Z"/>
      <path class="star color-white" d="M1325.21 472.815C1326.14 472.815 1326.89 472.059 1326.89 471.126C1326.89 470.193 1326.14 469.436 1325.21 469.436C1324.27 469.436 1323.52 470.193 1323.52 471.126C1323.52 472.059 1324.27 472.815 1325.21 472.815Z"/>
      <path class="star color-white" d="M1209.28 518.509C1209.8 518.509 1210.22 518.088 1210.22 517.569C1210.22 517.049 1209.8 516.628 1209.28 516.628C1208.76 516.628 1208.34 517.049 1208.34 517.569C1208.34 518.088 1208.76 518.509 1209.28 518.509Z"/>
      <path class="star color-white" d="M1279.11 512.654C1279.63 512.654 1280.05 512.232 1280.05 511.713C1280.05 511.193 1279.63 510.772 1279.11 510.772C1278.59 510.772 1278.17 511.193 1278.17 511.713C1278.17 512.232 1278.59 512.654 1279.11 512.654Z"/>
      <path class="star color-white" d="M1236.49 605.751C1236.49 606.691 1235.72 607.44 1234.8 607.44C1233.86 607.44 1233.12 606.672 1233.12 605.751C1233.12 604.829 1233.88 604.061 1234.8 604.061C1235.72 604.061 1236.49 604.81 1236.49 605.751Z"/>
      <path class="star color-white" d="M974.288 224.3C974.288 225.241 973.521 225.99 972.6 225.99C971.659 225.99 970.911 225.222 970.911 224.3C970.911 223.379 971.679 222.611 972.6 222.611C973.521 222.592 974.288 223.36 974.288 224.3Z"/>
      <path class="star color-white" d="M923.244 332.68C923.764 332.68 924.185 332.259 924.185 331.739C924.185 331.22 923.764 330.798 923.244 330.798C922.725 330.798 922.304 331.22 922.304 331.739C922.304 332.259 922.725 332.68 923.244 332.68Z"/>
      <path class="star color-white" d="M1058.8 213.952C1059.32 213.952 1059.74 213.531 1059.74 213.011C1059.74 212.492 1059.32 212.07 1058.8 212.07C1058.28 212.07 1057.86 212.492 1057.86 213.011C1057.86 213.531 1058.28 213.952 1058.8 213.952Z"/>
      <path class="star color-white" d="M735.188 100.811C735.708 100.811 736.129 100.39 736.129 99.8702C736.129 99.3506 735.708 98.9294 735.188 98.9294C734.669 98.9294 734.248 99.3506 734.248 99.8702C734.248 100.39 734.669 100.811 735.188 100.811Z"/>
      <path class="star color-white" d="M1136.25 85.4132C1136.77 85.4132 1137.19 84.992 1137.19 84.4724C1137.19 83.9528 1136.77 83.5316 1136.25 83.5316C1135.73 83.5316 1135.31 83.9528 1135.31 84.4724C1135.31 84.992 1135.73 85.4132 1136.25 85.4132Z"/>
      <path class="star color-white" d="M1038.38 137.29C1038.9 137.29 1039.32 136.868 1039.32 136.349C1039.32 135.829 1038.9 135.408 1038.38 135.408C1037.86 135.408 1037.44 135.829 1037.44 136.349C1037.44 136.868 1037.86 137.29 1038.38 137.29Z"/>
      <path class="star color-white" d="M1025.75 251.083C1026.27 251.083 1026.7 250.662 1026.7 250.143C1026.7 249.623 1026.27 249.202 1025.75 249.202C1025.24 249.202 1024.81 249.623 1024.81 250.143C1024.81 250.662 1025.24 251.083 1025.75 251.083Z"/>
      <path class="star color-white" d="M804.558 219.616C804.04 219.693 803.56 219.347 803.484 218.829C803.407 218.31 803.752 217.83 804.27 217.753C804.788 217.677 805.268 218.022 805.345 218.541C805.422 219.059 805.076 219.539 804.558 219.616Z"/>
      <path class="star color-white" d="M930.345 284.452C930.345 285.392 929.577 286.141 928.656 286.141C927.716 286.141 926.967 285.373 926.967 284.452C926.967 283.511 927.735 282.762 928.656 282.762C929.577 282.762 930.345 283.511 930.345 284.452Z"/>
      <path class="star color-white" d="M391.928 85.2212C392.861 85.2212 393.617 84.4648 393.617 83.5316C393.617 82.5985 392.861 81.842 391.928 81.842C390.996 81.842 390.24 82.5985 390.24 83.5316C390.24 84.4648 390.996 85.2212 391.928 85.2212Z"/>
      <path class="star color-white" d="M901.254 503.553C901.254 505.435 899.738 506.952 897.857 506.952C895.976 506.952 894.46 505.435 894.46 503.553C894.46 501.672 895.976 500.155 897.857 500.155C899.718 500.155 901.254 501.672 901.254 503.553Z"/>
      <path class="star color-white" d="M633.024 540.78C633.024 542.662 631.508 544.179 629.628 544.179C627.747 544.179 626.231 542.662 626.231 540.78C626.231 538.899 627.747 537.382 629.628 537.382C631.508 537.382 633.024 538.899 633.024 540.78Z"/>
      <path class="star color-white" d="M769.749 552.089C769.749 553.97 768.233 555.487 766.352 555.487C764.472 555.487 762.956 553.97 762.956 552.089C762.956 550.207 764.472 548.69 766.352 548.69C768.233 548.69 769.749 550.207 769.749 552.089Z"/>
      <path class="star color-white" d="M630.645 604.176C630.645 606.058 629.129 607.575 627.248 607.575C625.368 607.575 623.852 606.058 623.852 604.176C623.852 602.295 625.368 600.778 627.248 600.778C629.129 600.797 630.645 602.314 630.645 604.176Z"/>
      <path class="star color-white" d="M737.568 621.84C737.568 623.721 736.052 625.238 734.171 625.238C732.291 625.238 730.775 623.721 730.775 621.84C730.775 619.958 732.291 618.441 734.171 618.441C736.052 618.441 737.568 619.958 737.568 621.84Z"/>
      <path class="star color-white" d="M571.522 484.123C571.522 486.005 570.006 487.522 568.126 487.522C566.245 487.522 564.729 486.005 564.729 484.123C564.729 482.242 566.245 480.725 568.126 480.725C570.006 480.725 571.522 482.242 571.522 484.123Z"/>
      <path class="star color-white" d="M1183.64 323.042C1183.64 324.924 1182.13 326.44 1180.25 326.44C1178.37 326.44 1176.85 324.924 1176.85 323.042C1176.85 321.16 1178.37 319.644 1180.25 319.644C1182.13 319.644 1183.64 321.18 1183.64 323.042Z"/>
      <path class="star color-white" d="M1409.66 230.924C1409.66 232.806 1408.14 234.323 1406.26 234.323C1404.38 234.323 1402.86 232.806 1402.86 230.924C1402.86 229.043 1404.38 227.526 1406.26 227.526C1408.14 227.526 1409.66 229.043 1409.66 230.924Z"/>
      <path class="star color-white" d="M1151.39 224.934C1151.39 225.875 1150.62 226.624 1149.7 226.624C1148.76 226.624 1148.01 225.856 1148.01 224.934C1148.01 224.012 1148.78 223.244 1149.7 223.244C1150.62 223.244 1151.39 223.993 1151.39 224.934Z"/>
      <path class="star color-white" d="M868.382 389.279C868.382 390.22 867.615 390.969 866.694 390.969C865.753 390.969 865.005 390.201 865.005 389.279C865.005 388.358 865.772 387.59 866.694 387.59C867.615 387.59 868.382 388.358 868.382 389.279Z"/>
      <path class="star color-white" d="M1120.9 129.149C1121.83 129.149 1122.58 128.393 1122.58 127.46C1122.58 126.526 1121.83 125.77 1120.9 125.77C1119.96 125.77 1119.21 126.526 1119.21 127.46C1119.21 128.393 1119.96 129.149 1120.9 129.149Z"/>
      <path class="star color-white" d="M1099.79 70.0931C1100.72 70.0931 1101.48 69.3366 1101.48 68.4035C1101.48 67.4703 1100.72 66.7139 1099.79 66.7139C1098.85 66.7139 1098.1 67.4703 1098.1 68.4035C1098.1 69.3366 1098.85 70.0931 1099.79 70.0931Z"/>
      <path class="star color-white" d="M1258.85 347.809C1258.85 348.75 1258.08 349.499 1257.16 349.499C1256.22 349.499 1255.47 348.731 1255.47 347.809C1255.47 346.887 1256.24 346.119 1257.16 346.119C1258.08 346.119 1258.85 346.868 1258.85 347.809Z"/>
      <path class="star color-white" d="M1068.87 304.092C1069.81 304.092 1070.56 303.336 1070.56 302.403C1070.56 301.47 1069.81 300.713 1068.87 300.713C1067.94 300.713 1067.18 301.47 1067.18 302.403C1067.18 303.336 1067.94 304.092 1068.87 304.092Z"/>
      <path class="star color-white" d="M874.369 243.807C875.302 243.807 876.058 243.05 876.058 242.117C876.058 241.184 875.302 240.428 874.369 240.428C873.437 240.428 872.681 241.184 872.681 242.117C872.681 243.05 873.437 243.807 874.369 243.807Z"/>
      <path class="star color-white" d="M986.359 518.682C986.359 519.623 985.591 520.372 984.67 520.372C983.73 520.372 982.981 519.604 982.981 518.682C982.981 517.76 983.749 516.992 984.67 516.992C985.591 516.992 986.359 517.741 986.359 518.682Z"/>
      <path class="star color-white" d="M1062.46 456.65C1062.98 456.65 1063.4 456.228 1063.4 455.709C1063.4 455.189 1062.98 454.768 1062.46 454.768C1061.94 454.768 1061.52 455.189 1061.52 455.709C1061.52 456.228 1061.94 456.65 1062.46 456.65Z"/>
      <path class="star color-white" d="M1114.04 425.393C1114.56 425.393 1114.99 424.972 1114.99 424.452C1114.99 423.933 1114.56 423.512 1114.04 423.512C1113.53 423.512 1113.1 423.933 1113.1 424.452C1113.1 424.972 1113.53 425.393 1114.04 425.393Z"/>
      <path class="star color-white" d="M1211.78 352.494C1212.3 352.494 1212.72 352.072 1212.72 351.553C1212.72 351.033 1212.3 350.612 1211.78 350.612C1211.26 350.612 1210.84 351.033 1210.84 351.553C1210.84 352.072 1211.26 352.494 1211.78 352.494Z"/>
      <path class="star color-white" d="M1175.41 305.609C1175.93 305.609 1176.35 305.188 1176.35 304.668C1176.35 304.149 1175.93 303.728 1175.41 303.728C1174.89 303.728 1174.47 304.149 1174.47 304.668C1174.47 305.188 1174.89 305.609 1175.41 305.609Z"/>
      <path class="star color-white" d="M1013.72 406.808C1013.72 408.69 1012.21 410.207 1010.33 410.207C1008.45 410.207 1006.93 408.69 1006.93 406.808C1006.93 404.927 1008.45 403.41 1010.33 403.41C1012.21 403.41 1013.72 404.927 1013.72 406.808Z"/>
      <path class="star color-white" d="M876.73 720.581C876.73 722.463 875.214 723.98 873.333 723.98C871.453 723.98 869.937 722.463 869.937 720.581C869.937 718.7 871.453 717.183 873.333 717.183C875.214 717.183 876.73 718.7 876.73 720.581Z"/>
      <path class="star color-white" d="M909.332 759.978C910.265 759.978 911.021 759.222 911.021 758.288C911.021 757.355 910.265 756.599 909.332 756.599C908.4 756.599 907.644 757.355 907.644 758.288C907.644 759.222 908.4 759.978 909.332 759.978Z"/>
      <path class="star color-white" d="M1086.58 705.548C1087.52 705.548 1088.27 704.792 1088.27 703.859C1088.27 702.925 1087.52 702.169 1086.58 702.169C1085.65 702.169 1084.9 702.925 1084.9 703.859C1084.9 704.792 1085.65 705.548 1086.58 705.548Z"/>
      <path class="star color-white" d="M967.054 741.931C967.573 741.931 967.994 741.51 967.994 740.99C967.994 740.47 967.573 740.049 967.054 740.049C966.535 740.049 966.114 740.47 966.114 740.99C966.114 741.51 966.535 741.931 967.054 741.931Z"/>
      <path class="star color-white" d="M1017.16 667.668C1017.68 667.668 1018.1 667.247 1018.1 666.727C1018.1 666.208 1017.68 665.786 1017.16 665.786C1016.64 665.786 1016.22 666.208 1016.22 666.727C1016.22 667.247 1016.64 667.668 1017.16 667.668Z"/>
      <path class="star color-white" d="M1068.11 664.289C1068.62 664.289 1069.05 663.868 1069.05 663.348C1069.05 662.829 1068.62 662.407 1068.11 662.407C1067.59 662.407 1067.17 662.829 1067.17 663.348C1067.17 663.868 1067.59 664.289 1068.11 664.289Z"/>
      <path class="star color-white" d="M847.466 679.648C847.985 679.648 848.406 679.227 848.406 678.708C848.406 678.188 847.985 677.767 847.466 677.767C846.947 677.767 846.526 678.188 846.526 678.708C846.526 679.227 846.947 679.648 847.466 679.648Z"/>
      <path class="star color-white" d="M1305.11 276.964C1305.63 276.964 1306.05 276.543 1306.05 276.023C1306.05 275.503 1305.63 275.082 1305.11 275.082C1304.59 275.082 1304.17 275.503 1304.17 276.023C1304.17 276.543 1304.59 276.964 1305.11 276.964Z"/>
      <path class="star color-white" d="M1301.99 440.407C1302.5 440.407 1302.93 439.986 1302.93 439.466C1302.93 438.946 1302.5 438.525 1301.99 438.525C1301.47 438.525 1301.05 438.946 1301.05 439.466C1301.05 439.986 1301.47 440.407 1301.99 440.407Z"/>
      <path class="star color-white" d="M1023.03 740.145C1023.55 740.145 1023.97 739.724 1023.97 739.204C1023.97 738.685 1023.55 738.263 1023.03 738.263C1022.51 738.263 1022.09 738.685 1022.09 739.204C1022.09 739.724 1022.51 740.145 1023.03 740.145Z"/>
      <path class="star color-white" d="M1134.33 672.909C1134.85 672.909 1135.27 672.488 1135.27 671.969C1135.27 671.449 1134.85 671.028 1134.33 671.028C1133.81 671.028 1133.39 671.449 1133.39 671.969C1133.39 672.488 1133.81 672.909 1134.33 672.909Z"/>
      <path class="star color-white" d="M1082.34 434.378C1082.86 434.474 1083.19 434.974 1083.07 435.492C1082.98 435.991 1082.48 436.337 1081.96 436.221C1081.44 436.125 1081.12 435.626 1081.23 435.108C1081.35 434.589 1081.83 434.282 1082.34 434.378Z"/>
      <path class="star color-white" d="M1063.33 586.551C1063.85 586.647 1064.17 587.146 1064.06 587.665C1063.96 588.183 1063.46 588.51 1062.94 588.394C1062.44 588.298 1062.1 587.799 1062.21 587.281C1062.33 586.782 1062.83 586.455 1063.33 586.551Z"/>
      <path class="star color-white" d="M976.035 666.209C976.554 666.209 976.975 665.788 976.975 665.268C976.975 664.749 976.554 664.327 976.035 664.327C975.515 664.327 975.094 664.749 975.094 665.268C975.094 665.788 975.515 666.209 976.035 666.209Z"/>
      <path class="star color-white" d="M1024.81 356.084C1025.33 356.084 1025.75 355.663 1025.75 355.143C1025.75 354.623 1025.33 354.202 1024.81 354.202C1024.29 354.202 1023.87 354.623 1023.87 355.143C1023.87 355.663 1024.29 356.084 1024.81 356.084Z"/>
      <path class="star color-white" d="M1085.95 377.568C1085.95 378.086 1085.53 378.509 1085.01 378.509C1084.49 378.509 1084.07 378.086 1084.07 377.568C1084.07 377.049 1084.49 376.627 1085.01 376.627C1085.53 376.627 1085.95 377.049 1085.95 377.568Z"/>
      <path class="star color-white" d="M958.726 373.594C959.245 373.594 959.666 373.173 959.666 372.653C959.666 372.133 959.245 371.712 958.726 371.712C958.207 371.712 957.786 372.133 957.786 372.653C957.786 373.173 958.207 373.594 958.726 373.594Z"/>
      <path class="star color-white" d="M1117.61 532.909C1118.13 532.909 1118.55 532.488 1118.55 531.968C1118.55 531.448 1118.13 531.027 1117.61 531.027C1117.09 531.027 1116.67 531.448 1116.67 531.968C1116.67 532.488 1117.09 532.909 1117.61 532.909Z"/>
      <path class="star color-white" d="M1180.71 718.93C1180.71 719.871 1179.94 720.62 1179.02 720.62C1178.08 720.62 1177.33 719.852 1177.33 718.93C1177.33 717.989 1178.1 717.24 1179.02 717.24C1179.96 717.221 1180.71 717.989 1180.71 718.93Z"/>
      <path class="star color-white" d="M1256.83 656.878C1257.35 656.878 1257.77 656.457 1257.77 655.937C1257.77 655.418 1257.35 654.996 1256.83 654.996C1256.31 654.996 1255.89 655.418 1255.89 655.937C1255.89 656.457 1256.31 656.878 1256.83 656.878Z"/>
      <path class="star color-white" d="M1308.41 625.641C1308.93 625.641 1309.35 625.22 1309.35 624.7C1309.35 624.181 1308.93 623.759 1308.41 623.759C1307.9 623.759 1307.47 624.181 1307.47 624.7C1307.47 625.22 1307.9 625.641 1308.41 625.641Z"/>
      <path class="star color-white" d="M1373.22 520.295C1373.74 520.295 1374.16 519.874 1374.16 519.354C1374.16 518.835 1373.74 518.413 1373.22 518.413C1372.7 518.413 1372.28 518.835 1372.28 519.354C1372.28 519.874 1372.7 520.295 1373.22 520.295Z"/>
      <path class="star color-white" d="M1276.69 634.626C1277.21 634.722 1277.54 635.221 1277.42 635.74C1277.33 636.258 1276.83 636.584 1276.31 636.469C1275.81 636.373 1275.47 635.874 1275.58 635.356C1275.7 634.856 1276.2 634.53 1276.69 634.626Z"/>
      <path class="star color-white" d="M1018.54 124.522C1019.06 124.522 1019.48 124.101 1019.48 123.581C1019.48 123.062 1019.06 122.641 1018.54 122.641C1018.02 122.641 1017.6 123.062 1017.6 123.581C1017.6 124.101 1018.02 124.522 1018.54 124.522Z"/>
      <path class="star color-white" d="M973.463 200.378C973.983 200.378 974.404 199.957 974.404 199.437C974.404 198.918 973.983 198.497 973.463 198.497C972.944 198.497 972.523 198.918 972.523 199.437C972.523 199.957 972.944 200.378 973.463 200.378Z"/>
      <path class="star color-white" d="M1084.76 133.142C1085.28 133.142 1085.7 132.721 1085.7 132.202C1085.7 131.682 1085.28 131.261 1084.76 131.261C1084.24 131.261 1083.82 131.682 1083.82 132.202C1083.82 132.721 1084.24 133.142 1084.76 133.142Z"/>
      <path class="star color-white" d="M1060.97 91.9794C1060.54 92.2674 1059.95 92.1714 1059.66 91.7298C1059.37 91.3074 1059.47 90.7122 1059.91 90.4242C1060.33 90.1362 1060.93 90.2322 1061.22 90.6738C1061.5 91.1154 1061.39 91.6914 1060.97 91.9794Z"/>
      <path class="star color-white" d="M1013.76 46.7843C1014.28 46.8803 1014.61 47.3795 1014.49 47.8979C1014.39 48.3971 1013.9 48.7427 1013.38 48.6275C1012.86 48.5315 1012.53 48.0323 1012.65 47.5139C1012.76 47.0147 1013.24 46.6883 1013.76 46.7843Z"/>
      <path class="star color-white" d="M926.468 126.442C926.988 126.442 927.409 126.021 927.409 125.501C927.409 124.982 926.988 124.56 926.468 124.56C925.949 124.56 925.528 124.982 925.528 125.501C925.528 126.021 925.949 126.442 926.468 126.442Z"/>
      <path class="star color-white" d="M1131.14 179.144C1131.14 180.085 1130.37 180.833 1129.45 180.833C1128.51 180.833 1127.77 180.065 1127.77 179.144C1127.77 178.203 1128.53 177.454 1129.45 177.454C1130.37 177.454 1131.14 178.222 1131.14 179.144Z"/>
      <path class="star color-white" d="M1174.63 65.7923C1175.56 65.7923 1176.31 65.0358 1176.31 64.1027C1176.31 63.1695 1175.56 62.4131 1174.63 62.4131C1173.69 62.4131 1172.94 63.1695 1172.94 64.1027C1172.94 65.0358 1173.69 65.7923 1174.63 65.7923Z"/>
      <path class="star color-white" d="M1207.25 117.111C1207.77 117.111 1208.19 116.69 1208.19 116.17C1208.19 115.651 1207.77 115.229 1207.25 115.229C1206.73 115.229 1206.31 115.651 1206.31 116.17C1206.31 116.69 1206.73 117.111 1207.25 117.111Z"/>
      <path class="star color-white" d="M1227.13 94.8593C1227.65 94.9553 1227.97 95.4545 1227.86 95.9729C1227.76 96.4721 1227.26 96.8177 1226.74 96.7025C1226.25 96.6065 1225.9 96.1073 1226.01 95.5889C1226.13 95.0897 1226.61 94.7633 1227.13 94.8593Z"/>
      <path class="star color-white" d="M1219.18 556.332C1219.7 556.332 1220.12 555.911 1220.12 555.391C1220.12 554.871 1219.7 554.45 1219.18 554.45C1218.66 554.45 1218.24 554.871 1218.24 555.391C1218.24 555.911 1218.66 556.332 1219.18 556.332Z"/>
      <path class="star color-white" d="M1279.38 578.756C1279.9 578.756 1280.32 578.335 1280.32 577.816C1280.32 577.296 1279.9 576.875 1279.38 576.875C1278.86 576.875 1278.44 577.296 1278.44 577.816C1278.44 578.335 1278.86 578.756 1279.38 578.756Z"/>
      <path class="star color-white" d="M1388.61 437.738C1389.13 437.738 1389.55 437.317 1389.55 436.797C1389.55 436.278 1389.13 435.857 1388.61 435.857C1388.09 435.857 1387.67 436.278 1387.67 436.797C1387.67 437.317 1388.09 437.738 1388.61 437.738Z"/>
      <path class="star color-white" d="M1153.08 573.822C1153.6 573.822 1154.02 573.401 1154.02 572.881C1154.02 572.362 1153.6 571.941 1153.08 571.941C1152.56 571.941 1152.14 572.362 1152.14 572.881C1152.14 573.401 1152.56 573.822 1153.08 573.822Z"/>
      <path class="star color-white" d="M868.747 566.047C869.266 566.047 869.687 565.625 869.687 565.106C869.687 564.586 869.266 564.165 868.747 564.165C868.228 564.165 867.807 564.586 867.807 565.106C867.807 565.625 868.228 566.047 868.747 566.047Z"/>
      <path class="star color-white" d="M786.328 676.461C786.847 676.461 787.268 676.04 787.268 675.521C787.268 675.001 786.847 674.58 786.328 674.58C785.809 674.58 785.388 675.001 785.388 675.521C785.388 676.04 785.809 676.461 786.328 676.461Z"/>
      <path class="star color-white" d="M938.577 560.191C939.096 560.191 939.517 559.77 939.517 559.25C939.517 558.731 939.096 558.309 938.577 558.309C938.058 558.309 937.637 558.731 937.637 559.25C937.637 559.77 938.058 560.191 938.577 560.191Z"/>
      <path class="star color-white" d="M872.412 687.328C872.931 687.328 873.352 686.907 873.352 686.387C873.352 685.868 872.931 685.446 872.412 685.446C871.893 685.446 871.472 685.868 871.472 686.387C871.472 686.907 871.893 687.328 872.412 687.328Z"/>
      <path class="star color-white" d="M827.298 530.413C828.23 530.413 828.986 529.656 828.986 528.723C828.986 527.79 828.23 527.034 827.298 527.034C826.365 527.034 825.609 527.79 825.609 528.723C825.609 529.656 826.365 530.413 827.298 530.413Z"/>
      <path class="star color-white" d="M812.829 453.712C812.829 454.653 812.061 455.402 811.14 455.402C810.219 455.402 809.452 454.634 809.452 453.712C809.452 452.79 810.219 452.022 811.14 452.022C812.061 452.022 812.829 452.79 812.829 453.712Z"/>
      <path class="star color-white" d="M251.136 521.62C251.136 523.501 249.62 525.018 247.739 525.018C245.858 525.018 244.343 523.501 244.343 521.62C244.343 519.738 245.858 518.221 247.739 518.221C249.62 518.221 251.136 519.757 251.136 521.62Z"/>
      <path class="star color-white" d="M105.661 496.699C105.661 497.64 104.893 498.389 103.972 498.389C103.051 498.389 102.283 497.621 102.283 496.699C102.283 495.758 103.051 495.01 103.972 495.01C104.893 495.01 105.661 495.758 105.661 496.699Z"/>
      <path class="star color-white" d="M326.339 546.387C326.339 547.327 325.571 548.076 324.65 548.076C323.729 548.076 322.962 547.308 322.962 546.387C322.962 545.465 323.729 544.697 324.65 544.697C325.571 544.697 326.339 545.446 326.339 546.387Z"/>
      <path class="star color-white" d="M97.0446 634.319C97.0446 635.26 96.277 636.009 95.3559 636.009C94.4156 636.009 93.6672 635.241 93.6672 634.319C93.6672 633.397 94.4348 632.629 95.3559 632.629C96.2962 632.629 97.0446 633.378 97.0446 634.319Z"/>
      <path class="star color-white" d="M53.8494 717.26C53.8494 718.2 53.0818 718.949 52.1607 718.949C51.2396 718.949 50.472 718.181 50.472 717.26C50.472 716.338 51.2396 715.57 52.1607 715.57C53.0818 715.57 53.8494 716.319 53.8494 717.26Z"/>
      <path class="star color-white" d="M129.974 655.227C130.493 655.227 130.914 654.806 130.914 654.286C130.914 653.767 130.493 653.345 129.974 653.345C129.454 653.345 129.033 653.767 129.033 654.286C129.033 654.806 129.454 655.227 129.974 655.227Z"/>
      <path class="star color-white" d="M181.555 623.971C182.074 623.971 182.495 623.55 182.495 623.03C182.495 622.51 182.074 622.089 181.555 622.089C181.036 622.089 180.615 622.51 180.615 623.03C180.615 623.55 181.036 623.971 181.555 623.971Z"/>
      <path class="star color-white" d="M279.286 551.071C279.806 551.071 280.227 550.65 280.227 550.13C280.227 549.611 279.806 549.19 279.286 549.19C278.767 549.19 278.346 549.611 278.346 550.13C278.346 550.65 278.767 551.071 279.286 551.071Z"/>
      <path class="star color-white" d="M262.304 495.72C262.823 495.72 263.244 495.299 263.244 494.779C263.244 494.26 262.823 493.838 262.304 493.838C261.785 493.838 261.364 494.26 261.364 494.779C261.364 495.299 261.785 495.72 262.304 495.72Z"/>
      <path class="star color-white" d="M176.182 684.928C176.701 684.928 177.122 684.507 177.122 683.987C177.122 683.468 176.701 683.047 176.182 683.047C175.663 683.047 175.242 683.468 175.242 683.987C175.242 684.507 175.663 684.928 176.182 684.928Z"/>
      <path class="star color-white" d="M145.21 777.948C145.729 777.948 146.15 777.527 146.15 777.008C146.15 776.488 145.729 776.067 145.21 776.067C144.691 776.067 144.27 776.488 144.27 777.008C144.27 777.527 144.691 777.948 145.21 777.948Z"/>
      <path class="star color-white" d="M256.413 726.667C256.932 726.667 257.353 726.246 257.353 725.727C257.353 725.207 256.932 724.786 256.413 724.786C255.894 724.786 255.473 725.207 255.473 725.727C255.473 726.246 255.894 726.667 256.413 726.667Z"/>
      <path class="star color-white" d="M149.854 632.956C150.353 633.052 150.698 633.551 150.583 634.069C150.487 634.569 149.988 634.914 149.47 634.799C148.971 634.703 148.626 634.204 148.741 633.685C148.837 633.186 149.336 632.86 149.854 632.956Z"/>
      <path class="star color-white" d="M124.946 771.613C125.465 771.613 125.886 771.191 125.886 770.672C125.886 770.152 125.465 769.731 124.946 769.731C124.427 769.731 124.006 770.152 124.006 770.672C124.006 771.191 124.427 771.613 124.946 771.613Z"/>
      <path class="star color-white" d="M92.3242 554.661C92.8435 554.661 93.2645 554.24 93.2645 553.721C93.2645 553.201 92.8435 552.78 92.3242 552.78C91.8049 552.78 91.3839 553.201 91.3839 553.721C91.3839 554.24 91.8049 554.661 92.3242 554.661Z"/>
      <path class="star color-white" d="M152.521 577.086C153.041 577.086 153.462 576.665 153.462 576.145C153.462 575.626 153.041 575.205 152.521 575.205C152.002 575.205 151.581 575.626 151.581 576.145C151.581 576.665 152.002 577.086 152.521 577.086Z"/>
      <path class="star color-white" d="M290.973 478.057C291.492 478.057 291.913 477.635 291.913 477.116C291.913 476.596 291.492 476.175 290.973 476.175C290.454 476.175 290.033 476.596 290.033 477.116C290.033 477.635 290.454 478.057 290.973 478.057Z"/>
      <path class="star color-white" d="M1276.21 694.95C1276.21 695.891 1275.45 696.64 1274.53 696.64C1273.59 696.64 1272.84 695.872 1272.84 694.95C1272.84 694.029 1273.61 693.261 1274.53 693.261C1275.47 693.241 1276.21 694.009 1276.21 694.95Z"/>
      <path class="star color-white" d="M1154.38 685.792C1154.38 686.733 1153.61 687.482 1152.69 687.482C1151.75 687.482 1151 686.714 1151 685.792C1151 684.851 1151.77 684.103 1152.69 684.103C1153.63 684.083 1154.38 684.851 1154.38 685.792Z"/>
      <path class="star color-white" d="M1175.99 743.659C1175.99 744.599 1175.22 745.348 1174.3 745.348C1173.36 745.348 1172.61 744.58 1172.61 743.659C1172.61 742.718 1173.38 741.969 1174.3 741.969C1175.24 741.95 1175.99 742.718 1175.99 743.659Z"/>
      <path class="star color-white" d="M1187.31 706.681C1187.83 706.681 1188.25 706.26 1188.25 705.74C1188.25 705.22 1187.83 704.799 1187.31 704.799C1186.79 704.799 1186.37 705.22 1186.37 705.74C1186.37 706.26 1186.79 706.681 1187.31 706.681Z"/>
      <path class="star color-white" d="M175.222 737.4C176.155 737.4 176.911 736.643 176.911 735.71C176.911 734.777 176.155 734.021 175.222 734.021C174.29 734.021 173.534 734.777 173.534 735.71C173.534 736.643 174.29 737.4 175.222 737.4Z"/>
      <path class="star color-white" d="M371.242 782.998C371.242 783.516 370.82 783.939 370.302 783.939C369.784 783.939 369.362 783.516 369.362 782.998C369.362 782.479 369.784 782.057 370.302 782.057C370.82 782.057 371.242 782.479 371.242 782.998Z"/>
      <path class="star color-white" d="M264.108 766.045C264.627 766.045 265.048 765.624 265.048 765.104C265.048 764.585 264.627 764.163 264.108 764.163C263.588 764.163 263.167 764.585 263.167 765.104C263.167 765.624 263.588 766.045 264.108 766.045Z"/>
      <path class="star color-white" d="M343.648 790.85C344.167 790.85 344.588 790.429 344.588 789.91C344.588 789.39 344.167 788.969 343.648 788.969C343.128 788.969 342.708 789.39 342.708 789.91C342.708 790.429 343.128 790.85 343.648 790.85Z"/>
      <path class="star color-white" d="M388.666 798.511C389.599 798.511 390.355 797.754 390.355 796.821C390.355 795.888 389.599 795.132 388.666 795.132C387.733 795.132 386.977 795.888 386.977 796.821C386.977 797.754 387.733 798.511 388.666 798.511Z"/>
      <path class="star color-white" d="M1238.89 675.425C1239.41 675.425 1239.83 675.003 1239.83 674.484C1239.83 673.964 1239.41 673.543 1238.89 673.543C1238.37 673.543 1237.95 673.964 1237.95 674.484C1237.95 675.003 1238.37 675.425 1238.89 675.425Z"/>
      <path class="star color-white" d="M1217.57 696.371C1218.09 696.371 1218.51 695.95 1218.51 695.43C1218.51 694.91 1218.09 694.489 1217.57 694.489C1217.05 694.489 1216.63 694.91 1216.63 695.43C1216.63 695.95 1217.05 696.371 1217.57 696.371Z"/>
      <path class="star color-white" d="M1233.52 736.382C1234.04 736.382 1234.46 735.961 1234.46 735.441C1234.46 734.922 1234.04 734.5 1233.52 734.5C1233 734.5 1232.58 734.922 1232.58 735.441C1232.58 735.961 1233 736.382 1233.52 736.382Z"/>
      <path class="star color-white" d="M1376.11 674.868C1376.63 674.868 1377.05 674.447 1377.05 673.927C1377.05 673.407 1376.63 672.986 1376.11 672.986C1375.6 672.986 1375.17 673.407 1375.17 673.927C1375.17 674.447 1375.6 674.868 1376.11 674.868Z"/>
      <path class="star color-white" d="M1295.62 736.152C1296.13 736.152 1296.56 735.731 1296.56 735.211C1296.56 734.691 1296.13 734.27 1295.62 734.27C1295.1 734.27 1294.67 734.691 1294.67 735.211C1294.67 735.731 1295.1 736.152 1295.62 736.152Z"/>
      <path class="star color-white" d="M1205.85 712.575C1206.37 712.575 1206.79 712.154 1206.79 711.634C1206.79 711.115 1206.37 710.693 1205.85 710.693C1205.33 710.693 1204.91 711.115 1204.91 711.634C1204.91 712.154 1205.33 712.575 1205.85 712.575Z"/>
      <path class="star color-white" d="M943.067 644.783C943.586 644.783 944.007 644.361 944.007 643.842C944.007 643.322 943.586 642.901 943.067 642.901C942.548 642.901 942.127 643.322 942.127 643.842C942.127 644.361 942.548 644.783 943.067 644.783Z"/>
      <path class="star color-white" d="M1207.19 684.429C1207.71 684.525 1208.03 685.024 1207.92 685.543C1207.82 686.061 1207.32 686.387 1206.81 686.272C1206.31 686.176 1205.96 685.677 1206.08 685.158C1206.17 684.659 1206.67 684.333 1207.19 684.429Z"/>
      <path class="star color-white" d="M954.159 618.23C954.678 618.23 955.099 617.809 955.099 617.289C955.099 616.77 954.678 616.348 954.159 616.348C953.64 616.348 953.219 616.77 953.219 617.289C953.219 617.809 953.64 618.23 954.159 618.23Z"/>
      <path class="star color-white" d="M1399.7 573.899C1399.7 575.781 1398.18 577.297 1396.3 577.297C1394.42 577.297 1392.91 575.781 1392.91 573.899C1392.91 572.018 1394.42 570.501 1396.3 570.501C1398.18 570.501 1399.7 572.037 1399.7 573.899Z"/>
      <path class="star color-white" d="M1372.28 780.464C1373.21 780.464 1373.97 779.707 1373.97 778.774C1373.97 777.841 1373.21 777.084 1372.28 777.084C1371.34 777.084 1370.59 777.841 1370.59 778.774C1370.59 779.707 1371.34 780.464 1372.28 780.464Z"/>
      <path class="star color-white" d="M982.501 625.891C982.501 627.772 980.986 629.289 979.105 629.289C977.224 629.289 975.708 627.772 975.708 625.891C975.708 624.009 977.224 622.492 979.105 622.492C980.986 622.492 982.501 624.009 982.501 625.891Z"/>
      <path class="star color-white" d="M1333.53 748.094C1334.47 748.094 1335.22 747.337 1335.22 746.404C1335.22 745.471 1334.47 744.714 1333.53 744.714C1332.6 744.714 1331.84 745.471 1331.84 746.404C1331.84 747.337 1332.6 748.094 1333.53 748.094Z"/>
      <path class="star color-white" d="M1010.63 655.323C1011.15 655.323 1011.57 654.902 1011.57 654.382C1011.57 653.863 1011.15 653.441 1010.63 653.441C1010.11 653.441 1009.69 653.863 1009.69 654.382C1009.69 654.902 1010.11 655.323 1010.63 655.323Z"/>
      <path class="star color-white" d="M993.67 599.972C994.189 599.972 994.61 599.55 994.61 599.031C994.61 598.511 994.189 598.09 993.67 598.09C993.15 598.09 992.729 598.511 992.729 599.031C992.729 599.55 993.15 599.972 993.67 599.972Z"/>
      <path class="star color-white" d="M1250.44 787.164C1250.96 787.164 1251.38 786.743 1251.38 786.223C1251.38 785.704 1250.96 785.283 1250.44 785.283C1249.92 785.283 1249.5 785.704 1249.5 786.223C1249.5 786.743 1249.92 787.164 1250.44 787.164Z"/>
      <path class="star color-white" d="M314.941 707.506C314.941 709.388 313.425 710.905 311.544 710.905C309.663 710.905 308.147 709.388 308.147 707.506C308.147 705.625 309.663 704.108 311.544 704.108C313.425 704.108 314.941 705.625 314.941 707.506Z"/>
      <path class="star color-white" d="M350.383 646.933C350.383 647.874 349.616 648.622 348.695 648.622C347.774 648.622 347.006 647.854 347.006 646.933C347.006 646.011 347.774 645.243 348.695 645.243C349.616 645.243 350.383 645.992 350.383 646.933Z"/>
      <path class="star color-white" d="M310.987 786.377C310.987 787.318 310.22 788.066 309.299 788.066C308.378 788.066 307.61 787.298 307.61 786.377C307.61 785.455 308.378 784.687 309.299 784.687C310.22 784.687 310.987 785.436 310.987 786.377Z"/>
      <path class="star color-white" d="M756.124 696.256C756.124 697.197 755.357 697.945 754.435 697.945C753.495 697.945 752.747 697.177 752.747 696.256C752.747 695.334 753.514 694.566 754.435 694.566C755.357 694.566 756.124 695.315 756.124 696.256Z"/>
      <path class="star color-white" d="M382.103 717.106C383.036 717.106 383.792 716.35 383.792 715.417C383.792 714.483 383.036 713.727 382.103 713.727C381.171 713.727 380.415 714.483 380.415 715.417C380.415 716.35 381.171 717.106 382.103 717.106Z"/>
      <path class="star color-white" d="M459.917 653.365C460.436 653.365 460.857 652.943 460.857 652.424C460.857 651.904 460.436 651.483 459.917 651.483C459.397 651.483 458.976 651.904 458.976 652.424C458.976 652.943 459.397 653.365 459.917 653.365Z"/>
      <path class="star color-white" d="M506.124 683.085C506.644 683.085 507.065 682.664 507.065 682.144C507.065 681.625 506.644 681.203 506.124 681.203C505.605 681.203 505.184 681.625 505.184 682.144C505.184 682.664 505.605 683.085 506.124 683.085Z"/>
      <path class="star color-white" d="M475.153 776.086C475.672 776.086 476.093 775.665 476.093 775.145C476.093 774.626 475.672 774.204 475.153 774.204C474.633 774.204 474.213 774.626 474.213 775.145C474.213 775.665 474.633 776.086 475.153 776.086Z"/>
      <path class="star color-white" d="M571.733 733.253C572.252 733.253 572.673 732.831 572.673 732.312C572.673 731.792 572.252 731.371 571.733 731.371C571.214 731.371 570.793 731.792 570.793 732.312C570.793 732.831 571.214 733.253 571.733 733.253Z"/>
      <path class="star color-white" d="M454.889 769.77C455.408 769.77 455.829 769.348 455.829 768.829C455.829 768.309 455.408 767.888 454.889 767.888C454.369 767.888 453.948 768.309 453.948 768.829C453.948 769.348 454.369 769.77 454.889 769.77Z"/>
      <path class="star color-white" d="M713.197 759.344C713.197 761.226 711.681 762.743 709.801 762.743C707.92 762.743 706.404 761.226 706.404 759.344C706.404 757.463 707.92 755.946 709.801 755.946C711.662 755.946 713.197 757.463 713.197 759.344Z"/>
      <path class="star color-white" d="M603.818 727.147C603.818 729.029 602.302 730.546 600.421 730.546C598.541 730.546 597.025 729.029 597.025 727.147C597.025 725.266 598.541 723.749 600.421 723.749C602.283 723.768 603.818 725.285 603.818 727.147Z"/>
      <path class="star color-white" d="M680.326 645.09C680.326 646.031 679.558 646.779 678.637 646.779C677.697 646.779 676.948 646.011 676.948 645.09C676.948 644.168 677.716 643.4 678.637 643.4C679.558 643.4 680.326 644.149 680.326 645.09Z"/>
      <path class="star color-white" d="M851.131 732.504C851.131 733.445 850.363 734.193 849.442 734.193C848.521 734.193 847.753 733.425 847.753 732.504C847.753 731.563 848.521 730.814 849.442 730.814C850.363 730.814 851.131 731.563 851.131 732.504Z"/>
      <path class="star color-white" d="M692.876 725.055C693.395 725.055 693.816 724.633 693.816 724.114C693.816 723.594 693.395 723.173 692.876 723.173C692.356 723.173 691.936 723.594 691.936 724.114C691.936 724.633 692.356 725.055 692.876 725.055Z"/>
      <path class="star color-white" d="M756.431 686.234C756.95 686.234 757.371 685.813 757.371 685.293C757.371 684.773 756.95 684.352 756.431 684.352C755.912 684.352 755.491 684.773 755.491 685.293C755.491 685.813 755.912 686.234 756.431 686.234Z"/>
      <path class="star color-white" d="M639.241 786.223C640.174 786.223 640.93 785.467 640.93 784.534C640.93 783.601 640.174 782.844 639.241 782.844C638.309 782.844 637.553 783.601 637.553 784.534C637.553 785.467 638.309 786.223 639.241 786.223Z"/>
      <path class="star color-white" d="M531.896 731.39C532.828 731.39 533.585 730.634 533.585 729.701C533.585 728.768 532.828 728.011 531.896 728.011C530.963 728.011 530.207 728.768 530.207 729.701C530.207 730.634 530.963 731.39 531.896 731.39Z"/>
  </g>
  <g class="huge-star" opacity="0.8">
      <path class="color-white" opacity="0.28" d="M344.627 128.377L346.008 87.7131L346.833 128.089L346.546 173.418L344.627 128.377Z"/>
      <path class="color-white" opacity="0.28" d="M346.008 127.551L386.632 128.915L346.277 129.74L300.99 129.471L346.008 127.551Z"/>
      <path class="color-white" opacity="0.57" d="M345.029 127.821L367.692 108.468L346.258 128.858L321.599 151.11L345.029 127.821Z"/>
      <path class="color-white" opacity="0.57" d="M346.142 128.147L365.485 150.822L345.087 129.395L322.866 104.724L346.142 128.147Z"/>
  </g>
  <path class="shooting-star" d="M856.024 198.224C856.542 199.299 802.716 226.255 801.661 226.773C800.586 227.292 799.319 226.831 798.801 225.775C798.283 224.7 798.744 223.432 799.799 222.914C800.855 222.396 855.506 197.168 856.024 198.224Z"/>
  <path class="shooting-star" d="M1095.95 330.276C1096.47 331.351 1061.77 352.971 1060.7 353.489C1059.62 354.007 1058.36 353.547 1057.84 352.491C1057.32 351.415 1057.78 350.148 1058.84 349.63C1059.91 349.111 1095.45 329.201 1095.95 330.276Z"/>
  <path class="shooting-star" d="M1182.3 -8.59024C1182.82 -7.51508 1072.33 45.7819 1071.25 46.3003C1070.18 46.8187 1068.91 46.3579 1068.39 45.302C1067.88 44.2268 1068.34 42.9597 1069.39 42.4413C1070.47 41.9229 1181.8 -9.66539 1182.3 -8.59024Z"/>
  <defs>
      <radialGradient id="sky-bg" cx="0" cy="0" r="1" gradientUnits="userSpaceOnUse" gradientTransform="translate(718.28 939.997) scale(1029.76 1030.29)">
          <stop stop-color="#209DB5"/>
          <stop offset="0.0001" stop-color="#176F80"/>
          <stop offset="0.0998" stop-color="#146473"/>
          <stop offset="0.1996" stop-color="#125866"/>
          <stop offset="0.2994" stop-color="#104D59"/>
          <stop offset="0.3985" stop-color="#0E424D"/>
          <stop offset="0.4966" stop-color="#0B3740"/>
          <stop offset="0.5926" stop-color="#092C33"/>
          <stop offset="1" stop-color="#05161A"/>
      </radialGradient>
      <linearGradient id="linear-star" x1="0%" y1="100%" x2="100%" y2="0%" gradientUnits="userSpaceOnUse">
        <stop stop-color="white"/>
        <stop offset="1" stop-color="white" stop-opacity="0"/>
      </linearGradient>
  </defs>
</svg>
