<svg width="32" height="32" viewBox="0 0 32 32" fill="none" xmlns="http://www.w3.org/2000/svg">
<path d="M27.4676 4.5506C27.1275 4.20975 26.6658 4.0182 26.1843 4.0182C25.7028 4.0182 25.2411 4.20975 24.901 4.5506L16 13.4334L7.09898 4.5324C6.7589 4.19155 6.29719 4 5.8157 4C5.33421 4 4.8725 4.19155 4.53242 4.5324C3.82253 5.2423 3.82253 6.38905 4.53242 7.09895L13.4334 16L4.53242 24.901C3.82253 25.6109 3.82253 26.7577 4.53242 27.4676C5.24232 28.1775 6.38908 28.1775 7.09898 27.4676L16 18.5665L24.901 27.4676C25.6109 28.1775 26.7577 28.1775 27.4676 27.4676C28.1775 26.7577 28.1775 25.6109 27.4676 24.901L18.5666 16L27.4676 7.09895C28.1593 6.40726 28.1593 5.2423 27.4676 4.5506Z" fill="white"/>
</svg>
