<svg xmlns="http://www.w3.org/2000/svg" viewBox="0 0 24 32">
  <defs>
      <linearGradient id="linear-primary" x1="0" y1="0" x2="24" y2="0" gradientUnits="userSpaceOnUse">
          <stop stop-color="#42E1FF"/>
          <stop offset="0.40" stop-color="#209DB5"/>
          <stop offset="1" stop-color="#1B6E7D"/>
      </linearGradient>
  </defs>


  <path fill="url(#linear-primary)" d="M21.2798 10.4319H22.0029V1.34172C18.1923 0.44724 14.7948 0 12.155 0C8.27547 0 5.27977 0.704403 3.16786 2.11321C1.05595 3.56674 0 5.56813 0 8.1174C0 10.3312 0.688666 11.9637 2.066 13.0147C3.44333 14.0433 6.39311 15.2844 10.9154 16.7379C13.9225 17.6995 16.0918 18.6052 17.4232 19.4549C18.7317 20.2823 19.8336 21.4004 20.7288 22.8092C21.5782 24.1957 22.0029 25.7834 22.0029 27.5723C22.0029 29.4731 21.6126 30.949 20.8321 32C22.944 30.4123 24 28.2208 24 25.4256C24 23.5919 23.5179 21.9259 22.5538 20.4277C21.5897 18.9741 20.3845 17.856 18.9383 17.0734C17.5839 16.3578 15.208 15.4298 11.8106 14.2893C8.16069 13.0594 5.71593 11.9972 4.47633 11.1027C3.28264 10.2753 2.6858 9.14605 2.6858 7.71488C2.6858 6.37317 3.44333 5.22152 4.95839 4.25996C6.4505 3.29839 8.35581 2.81761 10.6743 2.81761C13.5897 2.81761 16.0689 3.43256 18.1119 4.66247C20.2009 5.91474 21.2568 7.83788 21.2798 10.4319Z"/>
</svg>
