<svg width="1440" height="286" viewBox="0 0 1440 286" fill="none" xmlns="http://www.w3.org/2000/svg">
<path d="M-142.028 168.147C-142.028 168.147 -39.6052 224.773 86.8155 222.586C211.201 220.438 309.112 152.897 315.659 152.897C322.206 152.897 391.934 181.21 448.607 183.378C505.28 185.565 795.136 115.876 827.831 94.1042C833.264 90.4788 965.137 148.543 965.137 148.543C965.137 148.543 1028.34 120.23 1093.73 70.1458C1148.21 113.689 1263.73 155.065 1263.73 155.065C1263.73 155.065 1453.33 213.858 1599.35 194.254C1599.35 248.693 1599.35 302 1599.35 302H-146.348L-142.028 168.147Z" fill="#020C0E"/>
<mask id="mask0" mask-type="alpha" maskUnits="userSpaceOnUse" x="-206" y="0" width="1851" height="298">
<path d="M-205.561 176.09C-88.9212 226.731 133.412 272.883 258.143 297.59C243.611 281.227 120.663 249.02 106.112 232.658C169.186 215.739 238.818 200.797 297.694 172.56C346.332 213.169 417.708 205.266 480.246 195.119C530.303 187.005 580.341 178.891 630.398 170.777C623.765 182.861 581.338 216.545 593.684 210.388C635.459 189.613 743.031 139.184 784.806 118.429C792.858 114.419 801.275 110.334 810.266 110.257C821.117 110.161 831.086 115.896 840.193 121.805C863.851 137.131 911.166 153.436 938.505 160.322C965.844 167.209 975.295 160.668 987.258 135.136C1013.39 150.309 1051.83 135.577 1061.13 106.804C1155.72 160.84 1249.99 169.606 1379.76 208.546C1412.95 218.502 1447.11 212.613 1481.73 214.109C1527.73 216.104 1560.24 221.686 1606.1 217.562C1622.66 216.066 1641.97 208.124 1644.21 191.647C1647.45 167.88 1615.26 157.771 1591.34 156.121C1514.96 150.846 1439.06 138.57 1364.9 119.503C1250.73 90.1349 1140.84 44.7117 1025.29 21.4821C884.211 -6.88824 738.737 -1.44054 595.007 5.8103C441.788 13.5407 287.82 23.2852 138.32 57.698C31.2274 82.347 -76.4596 119.829 -185.68 107.725" fill="#946394"/>
</mask>
<g mask="url(#mask0)">
<path d="M-142.028 168.147C-142.028 168.147 -39.6052 224.773 86.8155 222.586C211.201 220.438 309.112 152.897 315.659 152.897C322.206 152.897 391.934 181.21 448.607 183.378C505.28 185.565 795.136 115.876 827.831 94.1042C833.264 90.4788 965.137 148.543 965.137 148.543C965.137 148.543 1028.34 120.23 1093.73 70.1458C1148.21 113.689 1263.73 155.065 1263.73 155.065C1263.73 155.065 1453.33 213.858 1599.35 194.254C1599.35 248.693 1599.35 302 1599.35 302H-146.348L-142.028 168.147Z" fill="white"/>
</g>
</svg>
